<svg class="cstm-arrow-icon" xmlns="http://www.w3.org/2000/svg" width="12" height="22" viewBox="0 0 12 22" fill="none">
          <path d="M11.2803 1.53033C11.5732 1.23744 11.5732 0.762563 11.2803 0.46967C10.9874 0.176777 10.5126 0.176777 10.2197 0.46967L11.2803 1.53033ZM0.75 11L0.21967 10.4697C-0.0732233 10.7626 -0.0732233 11.2374 0.21967 11.5303L0.75 11ZM10.2197 21.5303C10.5126 21.8232 10.9874 21.8232 11.2803 21.5303C11.5732 21.2374 11.5732 20.7626 11.2803 20.4697L10.2197 21.5303ZM10.2197 0.46967L0.21967 10.4697L1.28033 11.5303L11.2803 1.53033L10.2197 0.46967ZM0.21967 11.5303L10.2197 21.5303L11.2803 20.4697L1.28033 10.4697L0.21967 11.5303Z" fill="black"/>
        </svg>