<svg class="cstm-arrow-icon" xmlns="http://www.w3.org/2000/svg" width="12" height="22" viewBox="0 0 12 22" fill="none">
          <path d="M0.71967 20.4697C0.426777 20.7626 0.426777 21.2374 0.71967 21.5303C1.01256 21.8232 1.48744 21.8232 1.78033 21.5303L0.71967 20.4697ZM11.25 11L11.7803 11.5303C11.921 11.3897 12 11.1989 12 11C12 10.8011 11.921 10.6103 11.7803 10.4697L11.25 11ZM1.78033 0.46967C1.48744 0.176777 1.01256 0.176777 0.71967 0.46967C0.426777 0.762563 0.426777 1.23744 0.71967 1.53033L1.78033 0.46967ZM1.78033 21.5303L11.7803 11.5303L10.7197 10.4697L0.71967 20.4697L1.78033 21.5303ZM11.7803 10.4697L1.78033 0.46967L0.71967 1.53033L10.7197 11.5303L11.7803 10.4697Z" fill="black"/>
        </svg>